<?xml version="1.0" encoding="UTF-8" standalone="no"?>
<svg width="758px" height="219px" viewBox="0 0 758 219" version="1.1" xmlns="http://www.w3.org/2000/svg" xmlns:xlink="http://www.w3.org/1999/xlink" xmlns:sketch="http://www.bohemiancoding.com/sketch/ns">
    <!-- Generator: Sketch 3.3.1 (12002) - http://www.bohemiancoding.com/sketch -->
    <title>logo</title>
    <desc>Created with Sketch.</desc>
    <defs></defs>
    <g id="Page-1" stroke="none" stroke-width="1" fill="none" fill-rule="evenodd" sketch:type="MSPage">
        <g id="logo" sketch:type="MSLayerGroup">
            <g id="Page-1" sketch:type="MSShapeGroup">
                <g id="Rectangle-1-+-Triangle-1-Copy">
                    <path d="M356.51723,170.938631 C384.804075,155.505438 404,125.49399 404,91 C404,40.7451963 363.259719,0 313.004036,0 L90.995964,0 C40.7503229,0 0,40.7420878 0,91 C0,141.254804 40.7402808,182 90.995964,182 L309.060244,182 L355.214257,218.62708 L356.517205,170.938645 L356.51723,170.938631 Z" id="Rectangle-1" fill="#00B9FF"></path>
                    <g id="viease-copy" transform="translate(59.000000, 47.000000)" fill="#FFFFFF">
                        <path d="M13.2533934,81 C11.7461928,70.132291 9.92171431,60.0976591 7.77990305,50.8958033 C5.63809179,41.6939475 3.09968688,32.6905426 0.16461219,23.8853185 L10.5166482,23.8853185 C13.0550912,31.5006475 15.0977139,39.1753561 16.6445776,46.9096745 C18.1914413,54.643993 19.5201376,62.7153273 20.6307064,71.1239197 C24.5970235,63.8258961 28.0873303,56.3296691 31.1017313,48.6350138 C34.1161323,40.9403586 36.019936,32.6905426 36.8131995,23.8853185 L47.1652355,23.8853185 C46.6099511,29.1208572 45.5985554,34.2571609 44.131018,39.2943836 C42.6634807,44.3316064 40.9183273,49.2299346 38.8955056,53.9895152 C36.8726838,58.7490958 34.6119169,63.369786 32.1131371,67.8517244 C29.6143573,72.3336628 27.0164586,76.7163775 24.3193629,81 L13.2533934,81 Z M49.7829917,81 L59.8970499,23.8853185 L70.3680748,23.8853185 L60.2540166,81 L49.7829917,81 Z M61.205928,7.9408033 C61.205928,5.87831838 61.8603605,4.13316501 63.1692452,2.70529084 C64.4781298,1.27741666 66.3224396,0.563490281 68.7022299,0.563490281 C70.5267358,0.563490281 71.9744199,1.11876635 73.0453255,2.22933516 C74.1162311,3.33990396 74.6516759,4.68843157 74.6516759,6.27495843 C74.6516759,8.33744335 73.9575808,10.0825967 72.5693698,11.5104709 C71.1811588,12.9383451 69.336849,13.6522714 67.0363851,13.6522714 C65.2118792,13.6522714 63.7840264,13.0969954 62.752784,11.9864266 C61.7215415,10.8758578 61.205928,9.52733016 61.205928,7.9408033 L61.205928,7.9408033 Z M109.634418,22.6954293 C114.314673,22.6954293 118.12228,23.9448005 121.057355,26.4435803 C123.992429,28.9423601 125.459945,32.1748601 125.459945,36.1411773 C125.459945,40.1074944 124.289899,43.3598257 121.949772,45.8982687 C119.609644,48.4367117 116.654782,50.4595031 113.085097,51.9667036 C109.515412,53.4739041 105.588816,54.5844563 101.305194,55.2983933 C97.0215714,56.0123304 92.8966634,56.4882814 88.9303463,56.7262604 C88.6923673,58.1541346 88.5733795,59.6216499 88.5733795,61.1288504 C88.5733795,64.8571885 89.4459562,67.9508695 91.1911358,70.4099861 C92.9363153,72.8691028 96.0299963,74.0986427 100.472271,74.0986427 C103.248694,74.0986427 106.025074,73.6821856 108.801496,72.849259 C111.577918,72.0163324 114.155985,70.9256115 116.535776,69.5770637 L118.558587,76.9543767 C115.782165,78.5409036 112.787641,79.810106 109.574924,80.7620222 C106.362207,81.7139383 102.971057,82.1898892 99.4013712,82.1898892 C95.9110121,82.1898892 92.8569937,81.6346131 90.2392244,80.5240443 C87.6214551,79.4134755 85.4598447,77.866635 83.7543283,75.8834765 C82.0488119,73.9003179 80.7597782,71.5800571 79.8871884,68.9226247 C79.0145986,66.2651922 78.5783103,63.3896554 78.5783103,60.295928 C78.5783103,55.5363474 79.2922367,50.8958259 80.7201108,46.3742244 C82.147985,41.8526228 84.210439,37.8268713 86.9075347,34.296849 C89.6046303,30.7668267 92.8767929,27.9507838 96.7241205,25.8486357 C100.571448,23.7464876 104.874838,22.6954293 109.634418,22.6954293 L109.634418,22.6954293 Z M108.32554,30.548698 C105.94575,30.548698 103.764308,31.0841428 101.78115,32.1550485 C99.797991,33.2259541 98.0330064,34.6141443 96.4861427,36.3196607 C94.939279,38.025177 93.6502453,39.9686433 92.6190028,42.1501177 C91.5877603,44.3315922 90.8341714,46.4932026 90.3582133,48.6350138 C93.1346353,48.5556875 96.0101721,48.2978808 98.98491,47.8615859 C101.959648,47.425291 104.676534,46.7510272 107.135651,45.8387742 C109.594768,44.9265213 111.617559,43.736644 113.204086,42.2691066 C114.790613,40.8015693 115.583864,38.9572595 115.583864,36.7361219 C115.583864,34.911616 114.929432,33.4242694 113.620547,32.2740374 C112.311662,31.1238054 110.546678,30.548698 108.32554,30.548698 L108.32554,30.548698 Z M174.959335,81 L164.964266,81 L168.533934,60.1769391 C167.502691,62.5567293 166.273151,65.0356404 164.845277,67.6137465 C163.417403,70.1918527 161.771406,72.551776 159.907237,74.6935873 C158.043068,76.8353985 156.000445,78.6202145 153.779308,80.0480886 C151.55817,81.4759628 149.138753,82.1898892 146.520983,82.1898892 C144.061867,82.1898892 141.900256,81.6346131 140.036087,80.5240443 C138.171918,79.4134755 136.605246,77.9459602 135.336025,76.1214543 C134.066803,74.2969484 133.114902,72.1551693 132.480291,69.6960526 C131.84568,67.236936 131.52838,64.6588685 131.52838,61.9617728 C131.52838,56.8055605 132.262137,51.8675698 133.729675,47.1476523 C135.197212,42.4277349 137.358822,38.2433331 140.214571,34.5943213 C143.070319,30.9453095 146.560626,28.0499414 150.685596,25.9081302 C154.810565,23.7663189 159.490749,22.6954293 164.726288,22.6954293 C168.295974,22.6954293 171.865605,23.1118864 175.435291,23.944813 C179.004976,24.7777396 182.019332,25.7494727 184.478449,26.8600415 L174.959335,81 Z M148.781773,73.7416759 C151.002911,73.7416759 153.204184,72.650955 155.385658,70.4694806 C157.567132,68.2880062 159.649418,65.5314571 161.632576,62.1997507 C163.615735,58.8680443 165.460045,55.2587498 167.165561,51.371759 C168.871077,47.4847682 170.358424,43.8358111 171.627645,40.4247784 L173.055513,32.4525208 C170.596396,31.341952 167.661365,30.7866759 164.250332,30.7866759 C160.8393,30.7866759 157.76545,31.6790839 155.028691,33.4639266 C152.291932,35.2487693 149.95184,37.56903 148.008345,40.4247784 C146.06485,43.2805267 144.577503,46.5526893 143.54626,50.2413643 C142.515018,53.9300392 141.999404,57.6781527 141.999404,61.4858172 C141.999404,62.9930177 142.098561,64.4803643 142.296877,65.9479017 C142.495193,67.415439 142.832325,68.724304 143.308283,69.874536 C143.784241,71.024768 144.458504,71.9568385 145.331094,72.6707756 C146.203684,73.3847127 147.353899,73.7416759 148.781773,73.7416759 L148.781773,73.7416759 Z M229.694238,64.8175069 C229.694238,67.5146026 229.119131,69.9340198 227.968899,72.075831 C226.818667,74.2176423 225.271826,76.0421208 223.328331,77.5493213 C221.384836,79.0565218 219.084406,80.2067366 216.426974,81 C213.769541,81.7932634 210.97333,82.1898892 208.038255,82.1898892 C205.10318,82.1898892 202.029331,81.8527573 198.816614,81.1784834 C195.603897,80.5042095 192.847348,79.6514641 190.546884,78.6202216 L192.807673,70.5289751 C195.108137,71.6395439 197.567217,72.5121206 200.184986,73.1467313 C202.802756,73.781342 205.380823,74.0986427 207.919266,74.0986427 C209.426467,74.0986427 210.874151,73.9598236 212.262362,73.6821814 C213.650573,73.4045392 214.860281,72.9285883 215.891524,72.2543144 C216.922766,71.5800405 217.75568,70.7471264 218.390291,69.7555471 C219.024902,68.7639678 219.342202,67.5542592 219.342202,66.126385 C219.342202,63.9052474 218.469626,61.9816125 216.724446,60.3554224 C214.979266,58.7292324 212.7185,57.122898 209.942078,55.5363712 C208.276224,54.5051287 206.630227,53.4144079 205.004037,52.2641759 C203.377847,51.1139439 201.930163,49.8447415 200.660942,48.4565305 C199.39172,47.0683195 198.360493,45.5413103 197.56723,43.8754571 C196.773967,42.2096038 196.377341,40.4247879 196.377341,38.5209557 C196.377341,33.3647434 198.181988,29.4381483 201.791337,26.7410526 C205.400685,24.043957 210.219688,22.6954293 216.24849,22.6954293 C219.262891,22.6954293 222.098766,23.0523925 224.756198,23.7663296 C227.413631,24.4802667 229.892542,25.4321685 232.193006,26.6220637 L230.051205,34.4753324 C225.370951,32.0162158 220.730429,30.7866759 216.129501,30.7866759 C213.353079,30.7866759 211.112144,31.2626268 209.406627,32.2145429 C207.701111,33.166459 206.848366,34.9116124 206.848366,37.4500554 C206.848366,39.433214 207.601955,41.1188735 209.109155,42.5070845 C210.616356,43.8952955 212.639147,45.3826421 215.17759,46.969169 C216.684791,47.9210851 218.291125,48.9721434 219.996641,50.1223753 C221.702158,51.2726073 223.268829,52.5616411 224.696704,53.9895152 C226.124578,55.4173894 227.314455,57.0237238 228.266371,58.8085665 C229.218287,60.5934092 229.694238,62.5963693 229.694238,64.8175069 L229.694238,64.8175069 Z M270.864405,22.6954293 C275.544659,22.6954293 279.352266,23.9448005 282.287341,26.4435803 C285.222415,28.9423601 286.689931,32.1748601 286.689931,36.1411773 C286.689931,40.1074944 285.519885,43.3598257 283.179758,45.8982687 C280.839631,48.4367117 277.884769,50.4595031 274.315083,51.9667036 C270.745398,53.4739041 266.818803,54.5844563 262.53518,55.2983933 C258.251558,56.0123304 254.12665,56.4882814 250.160332,56.7262604 C249.922353,58.1541346 249.803366,59.6216499 249.803366,61.1288504 C249.803366,64.8571885 250.675942,67.9508695 252.421122,70.4099861 C254.166302,72.8691028 257.259982,74.0986427 261.702258,74.0986427 C264.47868,74.0986427 267.25506,73.6821856 270.031482,72.849259 C272.807904,72.0163324 275.385972,70.9256115 277.765762,69.5770637 L279.788573,76.9543767 C277.012151,78.5409036 274.017627,79.810106 270.80491,80.7620222 C267.592193,81.7139383 264.201043,82.1898892 260.631357,82.1898892 C257.140998,82.1898892 254.08698,81.6346131 251.469211,80.5240443 C248.851441,79.4134755 246.689831,77.866635 244.984314,75.8834765 C243.278798,73.9003179 241.989764,71.5800571 241.117175,68.9226247 C240.244585,66.2651922 239.808296,63.3896554 239.808296,60.295928 C239.808296,55.5363474 240.522223,50.8958259 241.950097,46.3742244 C243.377971,41.8526228 245.440425,37.8268713 248.137521,34.296849 C250.834617,30.7668267 254.106779,27.9507838 257.954107,25.8486357 C261.801434,23.7464876 266.104824,22.6954293 270.864405,22.6954293 L270.864405,22.6954293 Z M269.555526,30.548698 C267.175736,30.548698 264.994294,31.0841428 263.011136,32.1550485 C261.027977,33.2259541 259.262993,34.6141443 257.716129,36.3196607 C256.169265,38.025177 254.880231,39.9686433 253.848989,42.1501177 C252.817747,44.3315922 252.064158,46.4932026 251.5882,48.6350138 C254.364622,48.5556875 257.240158,48.2978808 260.214896,47.8615859 C263.189634,47.425291 265.906521,46.7510272 268.365637,45.8387742 C270.824754,44.9265213 272.847545,43.736644 274.434072,42.2691066 C276.020599,40.8015693 276.81385,38.9572595 276.81385,36.7361219 C276.81385,34.911616 276.159418,33.4242694 274.850533,32.2740374 C273.541649,31.1238054 271.776664,30.548698 269.555526,30.548698 L269.555526,30.548698 Z" id="viease"></path>
                    </g>
                    <g id="微易" transform="translate(456.000000, 33.000000)" fill="#00B9FF">
                        <path d="M28.1420595,81.6450757 C24.0106393,81.6450757 20.0513616,82.1615032 16.0920839,83.0222158 C16.7806539,94.5557638 17.813509,105.917169 19.3627916,117.278575 C23.3220692,117.278575 27.1092044,116.762147 30.7241971,115.55715 C30.0356271,103.851459 29.1749145,92.6621962 28.1420595,81.6450757 L28.1420595,81.6450757 Z M37.6098974,21.5673403 C24.3549243,25.0101905 11.9606637,28.7973257 0.599258155,33.2730309 C0.943543171,37.0601661 1.97639822,40.6751587 3.6978233,44.1180089 C15.7477989,41.1915863 27.7977745,37.4044511 40.0198926,32.7566033 C40.0198926,28.7973257 39.15918,25.0101905 37.6098974,21.5673403 L37.6098974,21.5673403 Z M39.84775,57.5451245 C26.4206344,61.1601172 14.1985163,65.2915374 2.83711076,70.1115276 C3.18139578,73.8986628 4.21425083,77.341513 5.7635334,80.6122207 C17.813509,77.5136555 30.0356271,73.3822353 42.0856027,68.3901026 C42.0856027,64.6029674 41.2248901,60.9879747 39.84775,57.5451245 L39.84775,57.5451245 Z M119.549731,18.6409177 C110.598321,31.8958908 103.712621,44.8065789 99.0647729,57.2008395 C101.130483,59.9551197 104.229048,61.8486872 108.360468,62.5372573 C111.803319,57.8894096 114.901884,53.0694193 117.828306,48.0772866 C127.468287,50.8315667 136.763982,52.0365643 146.059678,52.0365643 C146.92039,48.5937141 147.436818,45.3230065 147.436818,42.5687263 C139.518262,40.8473012 131.599707,39.4701612 123.336867,38.4373061 C125.746862,33.9616009 127.812572,29.3137532 129.878282,24.6659055 C127.296144,21.5673403 123.853294,19.6737727 119.549731,18.6409177 L119.549731,18.6409177 Z M134.181845,62.0208298 C129.189712,69.0786726 124.541864,76.3086579 120.066159,83.5386433 C115.934739,79.7515081 111.631176,75.9643729 107.499756,72.1772377 C105.089761,74.5872329 102.679766,77.5136555 100.441913,81.1286482 C104.573333,85.9486384 108.704753,90.5964861 113.180459,95.0721913 C109.393323,101.785749 105.778331,108.499307 102.335481,115.385007 C104.401191,118.139287 107.155471,120.549283 110.254036,122.614993 C113.352601,118.31143 116.451166,113.835725 119.377589,109.015735 C120.410444,107.638594 121.443299,106.089312 122.476154,104.367887 C128.673284,110.565017 135.558985,116.417862 142.78897,121.926423 C146.576105,119.172143 148.9861,116.24572 150.191098,112.630727 C143.47754,106.089312 136.763982,99.3757541 129.878282,92.8343387 C134.698272,85.2600684 139.001835,77.1693705 142.78897,68.5622451 C140.551117,66.15225 137.624695,64.0865399 134.181845,62.0208298 L134.181845,62.0208298 Z M54.9962908,24.3216204 C53.2748657,24.3216204 51.5534406,24.6659055 49.8320155,25.0101905 C48.4548755,32.5844608 47.9384479,40.3308737 47.9384479,48.0772866 C47.9384479,50.1429967 48.1105904,51.6922793 48.7991605,52.5529918 C52.9305807,53.4137043 57.9227134,53.7579894 63.4312737,53.7579894 C76.5141043,53.7579894 85.8097998,53.2415618 91.31836,51.8644218 C91.4905025,50.8315667 91.662645,49.4544267 91.662645,48.0772866 C91.662645,46.7001465 91.31836,45.3230065 90.974075,44.2901514 C87.1869398,44.2901514 83.7440897,44.1180089 80.3012395,43.9458664 C81.6783796,33.6173159 82.3669496,22.9444804 82.3669496,11.5830748 C78.7519569,11.2387898 75.3091068,10.8945048 72.2105416,10.8945048 C70.4891165,21.9116253 69.628404,32.9287459 69.628404,43.6015814 C65.8412688,43.6015814 62.5705611,43.4294389 60.160566,43.4294389 C60.504851,38.6094486 60.8491361,32.5844608 60.8491361,25.182333 C58.783426,24.6659055 56.8898584,24.3216204 54.9962908,24.3216204 L54.9962908,24.3216204 Z M97.8597753,25.3544755 C94.4169252,26.0430455 91.31836,26.7316156 88.9083649,27.7644706 C89.2526499,33.6173159 90.62979,38.6094486 92.8676426,42.3965838 C95.9662077,42.0522988 98.8926304,41.1915863 101.991196,39.4701612 C101.130483,33.2730309 99.7533429,28.4530406 97.8597753,25.3544755 L97.8597753,25.3544755 Z M69.628404,63.2258273 C62.0541336,63.2258273 55.3405758,63.5701123 49.1434455,63.9143973 C48.4548755,65.6358224 48.2827329,67.3572475 48.2827329,69.2508151 C48.2827329,71.4886677 48.4548755,73.2100928 48.971303,74.5872329 C50.004158,75.2758029 56.8898584,75.4479454 69.628404,75.4479454 C84.6048022,75.4479454 92.8676426,75.2758029 94.5890677,74.5872329 C94.9333527,73.8986628 95.2776377,72.1772377 95.2776377,69.4229576 C95.2776377,67.185105 94.9333527,65.4636799 94.5890677,64.4308249 C88.2197949,63.7422548 79.9569545,63.2258273 69.628404,63.2258273 L69.628404,63.2258273 Z M55.5127183,82.3336457 C51.0370131,92.3179112 47.5941629,103.162889 45.0120253,114.696437 C47.5941629,116.590005 50.6927281,117.62286 54.4798632,117.795002 C58.6112834,106.089312 62.0541336,95.2443339 64.9805563,85.6043534 C62.0541336,84.2272133 58.9555685,83.0222158 55.5127183,82.3336457 L55.5127183,82.3336457 Z M79.0962419,86.809351 C77.3748169,86.809351 75.8255343,87.153636 74.1041092,87.497921 C72.7269691,95.0721913 72.2105416,102.818604 72.2105416,110.73716 C72.2105416,113.147155 72.3826841,114.86858 73.0712541,115.901435 C77.2026743,116.762147 82.1948071,117.106432 87.7033673,117.106432 C92.1790726,117.106432 95.4497802,116.590005 97.5154903,115.212865 C97.6876328,114.18001 97.8597753,112.975012 97.8597753,111.597872 C97.8597753,110.04859 97.5154903,108.67145 96.9990628,107.638594 C91.1462175,107.122167 86.8426548,106.777882 84.2605172,106.777882 C84.6048022,101.785749 84.9490872,95.4164764 84.9490872,87.6700635 C83.0555196,87.153636 81.161952,86.809351 79.0962419,86.809351 L79.0962419,86.809351 Z M226.105944,0.0495267743 C225.761659,3.32023443 225.761659,6.7630846 225.761659,10.5502198 C243.66448,12.0995024 261.739443,13.3044999 279.986549,14.1652125 C280.675119,27.5923281 281.191547,40.1587312 281.191547,51.8644218 C273.445134,52.2087068 260.706588,52.3808493 242.97591,52.3808493 C230.925934,52.3808493 221.285954,52.0365643 213.711683,51.1758517 L213.711683,37.2323086 C224.728804,38.7815911 236.77878,39.4701612 249.689468,39.4701612 C250.378038,36.1994535 250.722323,33.2730309 250.722323,30.6908932 C237.983777,29.3137532 225.589516,28.4530406 213.539541,27.7644706 C213.539541,22.6001954 213.367398,16.7473501 213.367398,10.3780773 L200.628853,10.3780773 C200.628853,30.0023232 201.14528,47.0444315 202.52242,61.6765447 C209.408121,63.0536848 219.048101,63.5701123 231.442362,63.5701123 C271.723709,63.5701123 292.725095,62.5372573 294.44652,60.2994047 C294.962947,53.4137043 295.307232,46.0115765 295.307232,37.9208786 C295.307232,21.0509128 294.44652,9.86164975 292.725095,4.00880446 C270.002284,2.11523687 247.7959,0.738096807 226.105944,0.0495267743 L226.105944,0.0495267743 Z M203.555275,67.3572475 C197.01386,77.685798 190.472445,88.875061 183.931029,101.097179 C186.68531,103.679317 190.12816,105.572884 194.087437,106.605739 C195.808863,104.712172 197.186003,102.990747 198.046715,101.269322 C198.735285,99.8921816 199.423855,98.5150415 200.45671,96.7936164 C201.661708,94.5557638 203.21099,91.9736262 205.104558,89.0472036 C208.375266,83.1943583 211.473831,77.1693705 214.572396,70.9722402 C211.645973,69.0786726 208.030981,67.873675 203.555275,67.3572475 L203.555275,67.3572475 Z M223.007379,94.7279063 C215.949536,104.712172 210.268833,115.55715 205.793128,127.090698 C209.063836,129.32855 212.850971,130.533548 217.326676,130.877833 C224.040234,119 229.720937,108.499307 234.540927,98.8593265 C230.925934,97.1379014 227.138799,95.7607614 223.007379,94.7279063 L223.007379,94.7279063 Z M254.165173,95.2443339 C249.517325,105.228599 245.73019,115.729292 242.803767,127.090698 C246.074475,129.156408 249.86161,130.361406 254.165173,130.705691 C258.640878,119 262.255871,108.67145 265.354436,99.2036115 C261.911586,97.4821865 258.124451,96.1050464 254.165173,95.2443339 L254.165173,95.2443339 Z M223.695949,74.9315179 C222.318809,78.030083 221.802381,81.1286482 221.802381,84.3993558 C244.525192,87.153636 267.075861,89.7357736 289.798672,92.3179112 C289.798672,101.613607 289.454387,110.73716 288.765817,119.68857 L273.789419,119.68857 C273.445134,120.893568 273.100849,122.44285 272.928706,124.336418 C272.928706,125.713558 273.100849,126.918555 273.445134,128.295695 C276.887984,129.32855 281.191547,129.844978 286.355822,129.844978 C293.241522,129.844978 297.545085,129.500693 298.922225,128.812123 C300.64365,123.475705 301.504363,115.729292 301.848648,105.056457 L301.848648,82.5057882 C275.338701,78.8907956 249.345183,76.3086579 223.695949,74.9315179 L223.695949,74.9315179 Z"></path>
                    </g>
                </g>
            </g>
        </g>
    </g>
</svg>